<?xml version="1.0" encoding="utf-8"?>
<!DOCTYPE svg PUBLIC "-//W3C//DTD SVG 1.1//EN" "http://www.w3.org/Graphics/SVG/1.1/DTD/svg11.dtd">
<svg version="1.1" xmlns="http://www.w3.org/2000/svg" xmlns:xlink="http://www.w3.org/1999/xlink" x="0px" y="0px" width="24px"
	 height="24px" viewBox="0 0 24 24" enable-background="new 0 0 24 24" xml:space="preserve">
<g id="Ebene_1">
	<path fill="#B7B7B7" d="M32.945,4.151V17H49.93V4.151H32.945z M37.16,15.727h-2.647v-2.652h2.647V15.727z M37.16,11.903h-2.647
		V9.251h2.647V11.903z M37.16,8.081h-2.647V5.424h2.647V8.081z M40.898,15.727h-2.656v-2.652h2.656V15.727z M40.898,11.903h-2.656
		V9.251h2.656V11.903z M40.898,8.081h-2.656V5.424h2.656V8.081z M44.629,15.727h-2.652v-2.652h2.652V15.727z M44.629,11.903h-2.652
		V9.251h2.652V11.903z M44.629,8.081h-2.652V5.424h2.652V8.081z M48.362,15.727h-2.651v-2.652h2.651V15.727z M48.362,11.903h-2.651
		V9.251h2.651V11.903z M48.362,8.081h-2.651V5.424h2.651V8.081z"/>
	<polygon fill="#B7B7B7" points="45.711,1.208 45.711,-0.901 44.385,-0.901 44.385,1.208 37.959,1.208 37.959,-0.901 36.633,-0.901 
		36.633,1.208 32.945,1.208 32.945,3.191 49.93,3.191 49.93,1.208 	"/>
</g>
<g id="Ebene_2">
	<polygon fill="#1761A7" points="21.361,7.851 12.437,16.775 3.513,7.852 	"/>
</g>
</svg>
