<?xml version="1.0" encoding="utf-8"?>
<!DOCTYPE svg PUBLIC "-//W3C//DTD SVG 1.1//EN" "http://www.w3.org/Graphics/SVG/1.1/DTD/svg11.dtd">
<svg version="1.1" id="Ebene_1" xmlns="http://www.w3.org/2000/svg" xmlns:xlink="http://www.w3.org/1999/xlink" x="0px" y="0px"
	 width="44.917px" height="34px" viewBox="0 0 44.917 34" enable-background="new 0 0 44.917 34" xml:space="preserve">
<g>
	<path fill="#055EA7" d="M21.807,23.427c0-1.313,0.23-2.569,0.635-3.746c-0.615-0.295-1.233-0.605-1.856-0.953
		c-0.999-0.719-1.511-1.054-1.61-3.326c2.212-1.376,2.903-4.38,2.903-7.874c0-4.794-2.042-7.39-5.604-7.39s-5.683,2.596-5.683,7.39
		c0,3.494,0.77,6.497,2.979,7.874c-0.099,2.272-0.612,2.606-1.61,3.326c-4.031,2.257-8.237,3.287-10.044,4.261
		C0.109,23.964,0,26.267,0,26.267s5.627,7.688,16.272,7.688c3.672,0,6.731-0.922,9.185-2.121
		C23.216,29.724,21.807,26.74,21.807,23.427z"/>
</g>
<g>
	<path fill="#FFFFFF" d="M34.483,31.775c-4.855,0-8.807-3.95-8.807-8.806c0-4.856,3.951-8.807,8.807-8.807s8.807,3.951,8.807,8.807
		C43.29,27.825,39.339,31.775,34.483,31.775z"/>
	<path fill="#055EA7" d="M34.483,15.453c4.15,0,7.517,3.365,7.517,7.517c0,4.15-3.366,7.516-7.517,7.516s-7.517-3.366-7.517-7.516
		C26.967,18.818,30.333,15.453,34.483,15.453 M34.483,12.874c-5.567,0-10.097,4.529-10.097,10.096
		c0,5.566,4.529,10.095,10.097,10.095S44.58,28.536,44.58,22.97C44.58,17.402,40.051,12.874,34.483,12.874L34.483,12.874z"/>
</g>
<path id="check_green_1_" fill="#7AB42A" d="M38.307,18.573L32.9,23.981l-2.524-2.523l-1.803,1.803l4.327,4.326l7.208-7.21
	L38.307,18.573z"/>
</svg>
