<?xml version="1.0" encoding="utf-8"?>
<!DOCTYPE svg PUBLIC "-//W3C//DTD SVG 1.1//EN" "http://www.w3.org/Graphics/SVG/1.1/DTD/svg11.dtd">
<svg version="1.1" id="Ebene_1" xmlns="http://www.w3.org/2000/svg" xmlns:xlink="http://www.w3.org/1999/xlink" x="0px" y="0px"
	 width="42.416px" height="34px" viewBox="0 0 42.416 34" enable-background="new 0 0 42.416 34" xml:space="preserve">
<g>
	<path fill="#055EA7" d="M21.807,23.474c0-1.313,0.23-2.569,0.636-3.746c-0.615-0.294-1.234-0.605-1.856-0.954
		c-0.999-0.719-1.512-1.054-1.611-3.326c2.212-1.376,2.904-4.38,2.904-7.874c0-4.793-2.043-7.39-5.605-7.39s-5.682,2.597-5.682,7.39
		c0,3.494,0.77,6.497,2.979,7.874c-0.099,2.272-0.611,2.606-1.609,3.326c-4.031,2.257-8.239,3.287-10.045,4.261
		C0.109,24.01,0,26.313,0,26.313S5.627,34,16.272,34c3.672,0,6.731-0.922,9.185-2.121C23.216,29.77,21.807,26.787,21.807,23.474z"/>
</g>
<g>
	<circle fill="#055EA7" cx="33.32" cy="23.432" r="8.976"/>
</g>
<polygon fill="#FFFFFF" points="39.271,23.474 33.357,17.741 33.357,21.176 29.292,21.176 29.292,25.772 33.357,25.772 
	33.357,29.208 "/>
</svg>
